<?xml version="1.0" encoding="utf-8"?>
<!-- Generator: Adobe Illustrator 24.0.0, SVG Export Plug-In . SVG Version: 6.00 Build 0)  -->
<svg version="1.1" id="Layer_1" xmlns="http://www.w3.org/2000/svg" xmlns:xlink="http://www.w3.org/1999/xlink" x="0px" y="0px"
	 viewBox="0 0 144 252" style="enable-background:new 0 0 144 252;" xml:space="preserve">
<style type="text/css">
	.st0{fill:#F9BEC4;}
	.st1{fill:#FFDD9C;}
	.st2{fill:#ACC1E4;}
	.st3{clip-path:url(#SVGID_2_);fill:#ACC1E4;}
	.st4{clip-path:url(#SVGID_2_);fill:#FFDD9C;}
	.st5{clip-path:url(#SVGID_2_);fill:#F9BEC4;}
</style>
<polygon class="st0" points="25.94,65 25.94,73.47 -12.22,79.26 -12.22,71.45 "/>
<polygon class="st1" points="25.94,78.31 25.94,86.78 -12.22,92.57 -12.22,84.76 "/>
<polygon class="st2" points="25.94,91.48 25.94,99.95 -12.22,105.74 -12.22,97.93 "/>
<g>
	<defs>
		<rect id="SVGID_1_" x="-3.65" y="0" width="147.3" height="259.91"/>
	</defs>
	<clipPath id="SVGID_2_">
		<use xlink:href="#SVGID_1_"  style="overflow:visible;"/>
	</clipPath>
	<path class="st3" d="M76.76,214.11l-28.01,44.5c-0.78,1.25-2.51,1.67-3.83,0.94l-47.2-26.01c-1.32-0.73-1.76-2.35-0.98-3.59
		l28.01-44.5c0.78-1.25,2.51-1.67,3.83-0.94l47.2,26.01C77.1,211.25,77.54,212.86,76.76,214.11"/>
	<path class="st4" d="M115.41,201.79l-48.76,23.95c-1.37,0.67-3.06,0.17-3.77-1.1L37.69,179c-0.71-1.28-0.17-2.88,1.2-3.55
		l48.76-23.96c1.37-0.67,3.06-0.17,3.77,1.11l25.19,45.63C117.31,199.52,116.77,201.11,115.41,201.79"/>
	<path class="st5" d="M132.97,149.57l-42.43,33.94c-1.19,0.95-2.95,0.83-3.92-0.26l-34.47-39.1c-0.97-1.1-0.78-2.77,0.4-3.72
		l42.42-33.94c1.19-0.95,2.95-0.83,3.92,0.26l34.47,39.1C134.35,146.94,134.16,148.62,132.97,149.57"/>
</g>
<rect x="-1.81" y="0" class="st0" width="148.37" height="48.06"/>
</svg>
