<?xml version="1.0" encoding="utf-8"?>
<!-- Generator: Adobe Illustrator 24.0.0, SVG Export Plug-In . SVG Version: 6.00 Build 0)  -->
<svg version="1.1" id="Layer_1" xmlns="http://www.w3.org/2000/svg" xmlns:xlink="http://www.w3.org/1999/xlink" x="0px" y="0px"
	 viewBox="0 0 1224 792" style="enable-background:new 0 0 1224 792;" xml:space="preserve">
<style type="text/css">
	.st0{opacity:0.35;fill:#F9BEC4;}
	.st1{opacity:0.35;fill:#FFFFFF;}
	.st2{opacity:0.35;fill:#FFDD9C;}
	.st3{opacity:0.35;fill:#ACC1E4;}
	.st4{opacity:0.35;fill:#F9BFC4;}
</style>
<rect class="st0" width="521.21" height="105.73"/>
<rect x="539.59" y="0.44" class="st0" width="38.93" height="17.92"/>
<rect x="521.21" y="0.22" class="st0" width="6.91" height="18.36"/>
<rect x="528.12" class="st1" width="11.48" height="18.36"/>
<rect x="705.6" y="0" class="st1" width="518.4" height="17.92"/>
<rect x="578.52" y="0.44" class="st2" width="39.09" height="17.92"/>
<rect x="617.61" y="0" class="st3" width="87.99" height="18.36"/>
<rect x="596.12" y="126.06" class="st0" width="627.88" height="151.05"/>
<rect x="596.12" y="288.29" class="st0" width="627.88" height="55.64"/>
<rect y="361.68" class="st0" width="1224" height="60.91"/>
<rect x="531.37" y="17.92" class="st1" width="692.63" height="108.14"/>
<rect y="105.73" class="st2" width="521.21" height="118.46"/>
<rect y="224.19" class="st3" width="521.21" height="119.75"/>
<polygon class="st4" points="584.75,451.56 584.75,462.09 0,469.29 0,459.58 "/>
<polygon class="st2" points="584.75,468.11 584.75,478.64 0,485.85 0,476.14 "/>
<polygon class="st3" points="584.75,484.49 584.75,495.02 0,502.23 0,492.52 "/>
<path class="st3" d="M1128.58,645l-32.03,50.88c-0.9,1.43-2.87,1.91-4.38,1.08l-53.97-29.74c-1.51-0.83-2.02-2.68-1.12-4.11
	l32.03-50.88c0.9-1.43,2.87-1.91,4.38-1.08l53.97,29.74C1128.97,641.72,1129.47,643.57,1128.58,645"/>
<path class="st2" d="M1021.1,610.02l-70.53,34.65c-1.98,0.97-4.43,0.25-5.45-1.6l-36.43-66.01c-1.02-1.85-0.24-4.16,1.74-5.13
	l70.53-34.65c1.98-0.97,4.43-0.25,5.45,1.6l36.43,66.01C1023.86,606.74,1023.08,609.05,1021.1,610.02"/>
<path class="st4" d="M893.3,537.24l-65.92,52.74c-1.85,1.48-4.59,1.29-6.09-0.41l-53.56-60.76c-1.5-1.7-1.22-4.31,0.63-5.78
	l65.92-52.74c1.85-1.48,4.59-1.29,6.09,0.41l53.56,60.76C895.43,533.16,895.14,535.76,893.3,537.24"/>
</svg>
